HIERARCHY
ROOT root
{
	OFFSET 0.000000 0.000000 0.000000
	CHANNELS 6 Xposition Yposition Zposition Zrotation Yrotation Xrotation
	JOINT lhip
	{
		OFFSET 0.058581 -0.082280 -0.017664
		CHANNELS 3 Zrotation Yrotation Xrotation
		JOINT lknee
		{
			OFFSET 0.043451 -0.386469 0.008037
			CHANNELS 3 Zrotation Yrotation Xrotation
			JOINT lankle
			{
				OFFSET -0.014790 -0.426874 -0.037428
				CHANNELS 3 Zrotation Yrotation Xrotation
				JOINT ltoe
				{
					OFFSET 0.041054 -0.060286 0.122042
					CHANNELS 3 Zrotation Yrotation Xrotation
					End Site
					{
						OFFSET 0.000000 0.000000 0.000000
					}
				}
			}
		}
	}
	JOINT rhip
	{
		OFFSET -0.060310 -0.090513 -0.013543
		CHANNELS 3 Zrotation Yrotation Xrotation
		JOINT rknee
		{
			OFFSET -0.043257 -0.383688 -0.004843
			CHANNELS 3 Zrotation Yrotation Xrotation
			JOINT rankle
			{
				OFFSET 0.019056 -0.420046 -0.034562
				CHANNELS 3 Zrotation Yrotation Xrotation
				JOINT rtoe
				{
					OFFSET -0.034840 -0.062106 0.130323
					CHANNELS 3 Zrotation Yrotation Xrotation
					End Site
					{
						OFFSET 0.000000 0.000000 0.000000
					}
				}
			}
		}
	}
	JOINT lowerback
	{
		OFFSET 0.004439 0.124404 -0.038385
		CHANNELS 3 Zrotation Yrotation Xrotation
		JOINT upperback
		{
			OFFSET 0.004488 0.137956 0.026820
			CHANNELS 3 Zrotation Yrotation Xrotation
			JOINT chest
			{
				OFFSET -0.002265 0.056032 0.002855
				CHANNELS 3 Zrotation Yrotation Xrotation
				JOINT lowerneck
				{
					OFFSET -0.013390 0.211636 -0.033468
					CHANNELS 3 Zrotation Yrotation Xrotation
					JOINT upperneck
					{
						OFFSET 0.010113 0.088937 0.050410
						CHANNELS 3 Zrotation Yrotation Xrotation
						End Site
						{
							OFFSET 0.000000 0.000000 0.000000
						}
					}
				}
				JOINT lclavicle
				{
					OFFSET 0.071702 0.114000 -0.018898
					CHANNELS 3 Zrotation Yrotation Xrotation
					JOINT lshoulder
					{
						OFFSET 0.122921 0.045205 -0.019046
						CHANNELS 3 Zrotation Yrotation Xrotation
						JOINT lelbow
						{
							OFFSET 0.255332 -0.015649 -0.022946
							CHANNELS 3 Zrotation Yrotation Xrotation
							JOINT lwrist
							{
								OFFSET 0.265709 0.012698 -0.007375
								CHANNELS 3 Zrotation Yrotation Xrotation
								End Site
								{
									OFFSET 0.000000 0.000000 0.000000
								}
							}
						}
					}
				}
				JOINT rclavicle
				{
					OFFSET -0.082954 0.112472 -0.023707
					CHANNELS 3 Zrotation Yrotation Xrotation
					JOINT rshoulder
					{
						OFFSET -0.113228 0.046853 -0.008472
						CHANNELS 3 Zrotation Yrotation Xrotation
						JOINT relbow
						{
							OFFSET -0.260127 -0.014369 -0.031269
							CHANNELS 3 Zrotation Yrotation Xrotation
							JOINT rwrist
							{
								OFFSET -0.269108 0.006794 -0.006027
								CHANNELS 3 Zrotation Yrotation Xrotation
								End Site
								{
									OFFSET 0.000000 0.000000 0.000000
								}
							}
						}
					}
				}
			}
		}
	}
}
MOTION
Frames: 11
Frame Time: 0.033333
-0.245836 -1.172148 0.910675 -142.800758 -7.152750 100.575212 10.903758 6.417395 -39.188194 -8.643501 6.636125 41.437887 -4.162149 5.732615 -16.807134 0.000000 -0.000000 0.000000 -20.364842 -4.360164 -46.958909 -2.421178 -2.306427 54.320499 6.037342 -5.197307 -21.039640 0.000000 -0.000000 0.000000 5.662431 -7.883883 41.525260 1.745567 -0.073764 -5.757173 1.760305 -0.664573 -2.898728 6.779649 -19.763849 -20.322403 12.397077 -17.917021 3.140816 -33.565474 -25.599060 8.665437 -49.278634 -17.439627 29.982263 -25.308201 -55.224941 46.835861 12.546823 -21.604082 -3.561521 23.852900 27.909709 7.308286 35.262792 3.106224 2.613005 16.903612 17.646160 -23.802214 4.972545 20.664533 -49.673589 
-0.262455 -1.174025 0.908737 -144.230540 -6.938873 100.358906 10.875657 5.680451 -39.404718 -7.815751 6.915604 42.532115 -3.770703 5.996208 -16.192827 0.000000 -0.000000 0.000000 -20.749088 -4.155557 -46.395047 -2.184754 -1.175705 53.994303 6.384820 -4.957544 -21.032647 0.000000 -0.000000 0.000000 5.504188 -7.137726 41.769367 1.493616 -0.092329 -5.714212 1.636058 -0.810239 -2.959343 6.505650 -19.492197 -20.706292 12.203361 -17.892171 3.483759 -33.829011 -25.582101 8.775865 -49.222793 -17.696289 30.093228 -24.984440 -54.722252 46.132537 12.934832 -21.876203 -3.002505 24.261683 27.963039 7.538737 34.978273 3.141978 2.966219 17.035578 17.482787 -24.461659 4.158419 20.288253 -49.308214 
-0.280277 -1.175938 0.906632 -145.795995 -6.581033 100.373134 10.468314 5.459346 -38.886165 -7.144539 7.884174 44.283745 -2.388270 6.229130 -18.723240 0.000000 -0.000000 0.000000 -21.115633 -3.616484 -46.044661 -1.745907 0.105028 53.665391 7.046823 -4.988910 -21.205820 0.000000 -0.000000 0.000000 5.288653 -6.474438 41.622617 1.287137 0.155061 -5.932865 1.485432 -0.920733 -2.961684 6.373893 -18.956430 -21.099097 11.477892 -18.075784 3.951870 -34.105379 -25.418804 9.019778 -49.470467 -18.085969 30.320365 -24.008786 -53.733716 45.045030 13.133817 -22.101758 -2.638432 24.949848 27.804233 7.774507 34.838120 3.289613 3.763249 16.852876 16.732159 -25.145661 4.180733 20.495950 -49.654211 
-0.298435 -1.177872 0.905711 -146.780204 -6.090129 100.397596 9.770081 5.310035 -39.054400 -6.385906 8.409091 46.116878 -1.638651 7.234131 -20.481213 0.000000 -0.000000 0.000000 -21.223075 -2.987462 -45.286633 -1.941843 1.198080 52.864473 7.534745 -5.351101 -21.295623 0.000000 -0.000000 0.000000 5.293995 -6.258499 41.101971 1.339832 0.316738 -6.104209 1.483630 -0.916268 -2.784056 6.186708 -18.770767 -21.183925 10.955887 -17.868552 4.231010 -34.352132 -25.591993 9.405453 -49.684755 -18.480194 30.183371 -22.774901 -52.672040 43.980635 12.278508 -22.295927 -1.932792 25.338005 27.675158 7.965543 34.966596 3.237699 4.017745 16.288112 16.446584 -25.861478 4.055165 19.990659 -49.386275 
-0.315873 -1.179733 0.906683 -147.506013 -5.696880 100.426655 9.177966 5.107466 -38.841003 -6.348580 8.599112 47.239518 -1.289370 7.825352 -21.889708 0.000000 -0.000000 0.000000 -21.318696 -2.455703 -44.449227 -2.362762 1.965666 51.930299 7.906684 -5.851516 -20.911224 0.000000 -0.000000 0.000000 5.547805 -5.950957 40.489546 1.556984 0.247457 -6.334724 1.620483 -1.067059 -2.646285 5.994922 -18.849719 -20.605003 10.835747 -17.660257 3.960712 -34.439487 -25.925705 10.008287 -49.620481 -18.961271 29.948271 -22.177702 -51.573003 43.922494 12.756337 -22.006445 -1.924738 25.473744 27.576736 8.319112 35.221835 3.163929 4.235380 16.318317 16.598901 -25.592782 -0.211558 18.909748 -51.727142 
-0.332420 -1.180788 0.908008 -148.137278 -5.391261 100.608299 8.836664 5.109382 -38.388472 -6.473293 9.347505 47.706213 -0.910776 7.742678 -23.108148 0.000000 -0.000000 0.000000 -21.422092 -1.822875 -43.847742 -3.140915 2.354220 51.078962 8.026766 -6.561579 -20.320866 0.000000 -0.000000 0.000000 5.877581 -5.850527 39.353619 1.965506 0.193822 -6.243567 1.718258 -1.078757 -2.654634 5.857436 -19.112374 -20.084701 10.627774 -17.846130 4.194531 -34.380987 -26.526506 10.573676 -49.496182 -19.282919 29.753341 -22.025563 -50.595564 43.633474 12.960256 -22.261167 -1.427776 25.317925 27.442503 8.554700 35.624485 2.583076 4.552051 16.105615 17.158274 -24.539050 -1.335187 18.074300 -53.121016 
-0.347990 -1.181115 0.909401 -148.503442 -5.388522 100.737537 7.800882 4.824390 -38.058378 -6.616346 9.349223 47.984623 -0.232408 8.792340 -24.028552 0.000000 -0.000000 0.000000 -21.579186 -1.442746 -43.398384 -4.036221 2.524126 50.817403 8.189423 -7.585061 -19.370582 0.000000 -0.000000 0.000000 6.259378 -6.294053 38.117233 2.396558 0.098148 -6.219434 1.783022 -1.031235 -2.302739 5.911210 -19.847502 -19.709555 10.522942 -17.839040 4.139985 -33.901227 -27.066692 10.803324 -49.417091 -19.634236 29.266177 -22.290244 -50.247299 44.257515 11.736675 -21.795055 -0.600017 24.432378 27.367729 8.167940 36.711598 1.943842 4.712507 14.770176 17.960948 -24.156419 -0.320737 17.141092 -52.845418 
-0.361444 -1.180703 0.911210 -149.115507 -5.387026 101.239317 7.172436 4.585992 -37.882472 -6.743004 9.812690 48.013668 0.374434 8.990449 -24.798844 0.000000 -0.000000 0.000000 -21.542405 -0.810371 -43.902346 -4.673911 2.085149 50.992210 8.036418 -9.401234 -18.507138 0.000000 -0.000000 0.000000 6.800596 -6.777846 36.788460 2.933819 0.122478 -6.225819 1.985227 -1.168717 -2.077206 5.816644 -20.714997 -19.271058 10.474533 -17.600491 3.579222 -33.357932 -27.267079 10.649259 -49.531914 -19.838592 28.992675 -22.156666 -50.218441 44.582950 9.980243 -21.561642 0.254017 23.608123 27.305261 7.752743 37.565857 1.820281 4.832166 13.863377 18.079816 -23.828585 2.290955 16.452255 -52.433098 
-0.373662 -1.178596 0.912423 -149.645154 -5.664231 101.236714 6.221048 4.409456 -37.166352 -6.598482 10.137740 48.103805 0.426359 9.291249 -25.405756 0.000000 -0.000000 0.000000 -21.317341 -0.412888 -44.316076 -5.710784 0.940222 51.834695 7.949954 -10.099411 -18.285983 0.000000 -0.000000 0.000000 7.271561 -7.539328 36.172187 3.411562 -0.068932 -6.395294 2.303130 -1.200566 -1.949279 5.796792 -21.432876 -18.563860 10.506452 -17.393197 2.446271 -32.914559 -27.687839 10.622032 -49.002266 -20.038779 28.845787 -23.157023 -50.619179 45.283078 10.921002 -21.753100 0.813090 22.849343 27.494295 7.449101 37.699272 1.555083 5.457549 14.214461 20.174295 -23.721548 -2.968667 14.289010 -53.521918 
-0.384185 -1.175101 0.912908 -150.417800 -6.157917 101.278552 5.255296 4.504211 -36.308760 -6.559422 10.658877 47.938446 0.208859 9.298106 -26.051843 0.000000 -0.000000 0.000000 -20.851733 -0.409033 -45.281735 -5.937396 0.003939 53.300853 7.683063 -10.280946 -18.793178 0.000000 -0.000000 0.000000 7.750584 -8.530279 35.798156 3.736787 -0.187569 -6.360874 2.511901 -1.125681 -2.053482 5.865834 -21.868919 -19.035366 10.201438 -17.237116 1.806644 -32.273742 -27.958997 10.071073 -48.439479 -19.654717 28.749943 -24.593361 -52.076560 46.579855 9.607886 -21.813143 1.635144 22.020095 28.054424 6.919813 37.734758 1.599579 5.548441 14.743580 20.397529 -23.965882 -1.917681 14.863909 -52.251105 
-0.393153 -1.169885 0.912837 -151.554803 -7.047468 101.256077 4.075160 4.867588 -35.110206 -6.566675 11.495488 47.539422 0.371347 9.565869 -26.590107 0.000000 -0.000000 0.000000 -20.386217 -0.482622 -46.458910 -6.425289 -1.018561 54.898257 7.255867 -10.958361 -19.335200 0.000000 -0.000000 0.000000 7.989597 -9.269824 35.593897 4.017801 -0.197708 -6.404673 2.693587 -1.328857 -2.031591 5.816391 -22.130307 -19.203027 10.051190 -16.586455 0.737668 -31.985507 -28.212092 9.781880 -47.467256 -19.142096 28.525773 -26.561468 -53.889871 48.756536 8.557350 -21.895229 2.553755 21.386263 28.362877 6.073763 37.878577 1.755819 5.371737 14.457824 20.231874 -23.670180 3.006232 15.396110 -49.665213 
